<?xml version="1.0" encoding="utf-8"?>
<!-- Generator: Adobe Illustrator 27.2.0, SVG Export Plug-In . SVG Version: 6.00 Build 0)  -->
<svg version="1.1" id="圖層_1" xmlns="http://www.w3.org/2000/svg" xmlns:xlink="http://www.w3.org/1999/xlink" x="0px" y="0px"
	 viewBox="0 0 200 200" style="enable-background:new 0 0 200 200;" xml:space="preserve">
<g>
	<g>
		<path d="M103.23,30.27h-5.99c-1.13,0-2.1-0.97-2.1-2.1v-1.46c0-1.13,0.97-2.1,2.1-2.1h5.99c1.13,0,2.1,0.97,2.1,2.1v1.46
			C105.33,29.3,104.36,30.27,103.23,30.27z"/>
		<path d="M103.06,39.66h-5.51c-1.3,0-2.43-1.13-2.43-2.43v-3.56c0-1.3,1.13-2.43,2.43-2.43h5.51c1.3,0,2.43,1.13,2.43,2.43v3.56
			C105.33,38.69,104.36,39.66,103.06,39.66z"/>
		<path d="M102.42,46.46h-4.37c-0.97,0-1.78-0.81-1.78-1.78v-2.27c0-0.97,0.81-1.78,1.78-1.78h4.37c0.97,0,1.78,0.81,1.78,1.78v2.27
			C104.2,45.65,103.39,46.46,102.42,46.46z"/>
		<path d="M97.72,47.76h5.02c1.13,0,2.27,0.97,2.27,2.27v3.72c0,1.13-0.97,2.27-2.27,2.27h-5.02c-1.13,0-2.27-0.97-2.27-2.27v-3.72
			C95.62,48.73,96.59,47.76,97.72,47.76z"/>
		<path d="M96.91,56.82h6.64c1.13,0,2.1,0.97,2.1,2.1v1.62c0,1.13-0.97,2.1-2.1,2.1h-6.64c-1.13,0-2.1-0.97-2.1-2.1v-1.62
			C94.81,57.79,95.78,56.82,96.91,56.82z"/>
	</g>
	<path d="M176.41,119.16c-2.43-12.47-6.64-26.55-15.06-36.43c-3.4-4.05-6.64-8.42-9.71-12.63c-1.62-2.27-3.4-4.7-5.18-6.96
		c-0.97-1.3-4.05-4.05-4.05-5.83c0-0.49-12.31-14.41-12.95-14.9c-0.81-0.49-5.83-3.24-9.07,1.13c-1.13,1.62-2.59,3.08-3.4,5.02
		c-1.13,2.75-1.3,5.99-1.46,8.91c-0.16,1.94-0.32,3.89-0.49,5.67c-0.16,1.62-0.32,3.24-0.97,4.53c-0.49,0.97-1.78,2.43-2.91,2.27
		c-0.65,0-0.81-0.81-0.65-1.3c0-0.97,0.49-1.78,0.32-2.59c-0.32-1.13-0.97-2.59-2.43-2.59c-1.3-0.16-2.59,0.65-3.56,1.3
		c-0.49,0.32-0.97,0.81-1.46,0.97c-0.65,0.49-1.46,0.49-2.43,0.49c-0.81,0-1.46,0-2.27,0c-0.65,0-1.46,0-2.1-0.32
		c-0.81-0.49-1.3-1.3-2.1-1.78c-0.81-0.49-1.62-0.81-2.59-0.65c-1.3,0.16-2.1,1.46-2.43,2.59c-0.16,0.97,0.16,1.78,0.32,2.59
		c0,0.65,0,1.3-0.65,1.3c-1.3,0.16-2.43-1.3-2.91-2.27c-0.81-1.46-0.97-3.08-0.97-4.53c-0.16-1.94-0.32-3.89-0.49-5.67
		c-0.32-2.91-0.32-6.15-1.46-8.91c-0.81-1.78-2.27-3.4-3.4-5.02c-3.24-4.21-8.26-1.46-9.07-1.13c-0.81,0.49-12.95,14.41-12.95,14.9
		c0,1.78-2.91,4.53-4.05,5.83c-1.78,2.27-3.4,4.53-5.18,6.96c-3.08,4.21-6.31,8.74-9.71,12.63c-8.26,9.88-12.63,23.96-15.06,36.43
		c-1.46,7.77-1.78,15.87-1.78,23.8c0,7.77,0.16,15.38,2.27,22.99c0.65,2.43,1.13,5.34,2.59,7.45c1.78,2.43,5.67,2.43,8.26,1.13
		c2.43-1.13,3.56-3.72,5.51-5.34c1.94-1.62,4.53-2.27,6.96-2.43c4.86-0.49,9.39,0.16,14.25-1.13c2.1-0.65,4.37-1.3,6.48-2.1
		c11.82-4.7,19.27-14.09,22.34-26.39c2.75-11.01,2.75-23.8,2.1-35.14c0,0-0.81-14.25-1.3-15.38c-0.49-1.3-1.78-4.53-2.91-5.83
		c-2.1-2.43-4.7-4.53-7.12-6.64c-0.16-0.16-0.16-0.16-0.32-0.32c-2.59-2.43-5.83-4.7-7.29-7.93c-1.46-3.4-2.27-7.29-0.97-10.85
		c0.81-2.43,2.75-5.67,5.83-4.37c0.81,0.32,1.62,0.81,1.94,1.62c0.16,0.81-0.32,1.78-1.13,1.94c-0.81,0.16-1.46-0.65-2.1-0.97
		c-1.46-0.81-2.1,0.97-2.27,2.1c-0.16,1.13-0.16,2.27,0,3.56c0.32,2.75,1.46,5.51,2.91,7.77c1.46,2.43,3.24,4.53,5.18,6.64
		c1.3,1.62,2.75,3.08,4.37,4.37c0.49,0.32,0.97,0.81,1.62,0.81c0.97,0.16,1.94-0.65,2.43-1.46c0.16-0.16,0.16-0.97,0.16-1.13
		c0.32-1.13,0.16-2.27,0.16-3.4c0-0.65,0-1.78,0.65-2.27c0.16-0.16,0.49-0.32,0.81-0.32c1.78-0.65,3.72-0.81,5.51-0.81
		c0.97,0,1.78,0,2.75,0c1.62,0,3.08,0.16,4.53,0.97c0.97,0.49,0.81,1.94,0.97,2.91c0,0.97,0,1.94,0.16,2.91c0,0.32,0,0.97,0.16,1.13
		c0.65,0.81,1.46,1.46,2.43,1.46c0.65,0,1.13-0.49,1.62-0.81c1.62-1.3,3.08-2.91,4.37-4.37c1.94-2.1,3.72-4.37,5.18-6.64
		c1.46-2.43,2.59-5.02,2.91-7.77c0.16-1.13,0.16-2.27,0-3.56c-0.16-1.13-0.81-2.91-2.27-2.1c-0.65,0.32-1.3,1.13-2.1,0.97
		c-0.81-0.16-1.3-1.3-1.13-1.94c0.16-0.81,1.13-1.3,1.94-1.62c2.91-1.13,5.02,2.1,5.83,4.37c1.3,3.56,0.49,7.45-0.97,10.85
		s-4.7,5.67-7.29,7.93c-0.16,0.16-0.16,0.16-0.32,0.32c-2.43,2.1-5.02,4.21-7.12,6.64c-1.13,1.3-2.43,4.7-2.91,5.83
		s-1.3,15.38-1.3,15.38c-0.65,11.17-0.65,23.96,2.1,35.14c3.08,12.31,10.52,21.53,22.34,26.39c2.1,0.81,4.21,1.62,6.48,2.1
		c4.86,1.3,9.39,0.65,14.25,1.13c2.43,0.16,5.02,0.81,6.96,2.43s3.24,4.21,5.51,5.34c2.59,1.3,6.48,1.3,8.26-1.13
		c1.62-1.94,1.94-5.02,2.59-7.45c2.1-7.45,2.27-15.22,2.27-22.99C178.35,134.87,178.03,126.93,176.41,119.16z"/>
</g>
</svg>
